<?xml version="1.0" encoding="UTF-8" standalone="no"?>
<!-- Created with Inkscape (http://www.inkscape.org/) -->

<svg
   width="1024"
   height="1024"
   viewBox="0 0 270.93332 270.93333"
   version="1.1"
   id="svg1"
   xml:space="preserve"
   inkscape:version="1.4.2 (ebf0e940d0, 2025-05-08)"
   sodipodi:docname="edpf.svg"
   xmlns:inkscape="http://www.inkscape.org/namespaces/inkscape"
   xmlns:sodipodi="http://sodipodi.sourceforge.net/DTD/sodipodi-0.dtd"
   xmlns="http://www.w3.org/2000/svg"
   xmlns:svg="http://www.w3.org/2000/svg"><sodipodi:namedview
     id="namedview1"
     pagecolor="#505050"
     bordercolor="#ffffff"
     borderopacity="1"
     inkscape:showpageshadow="0"
     inkscape:pageopacity="0"
     inkscape:pagecheckerboard="1"
     inkscape:deskcolor="#505050"
     inkscape:document-units="mm"
     inkscape:zoom="1.0449705"
     inkscape:cx="477.04694"
     inkscape:cy="563.17377"
     inkscape:window-width="2560"
     inkscape:window-height="1382"
     inkscape:window-x="0"
     inkscape:window-y="0"
     inkscape:window-maximized="1"
     inkscape:current-layer="layer1" /><defs
     id="defs1" /><g
     inkscape:label="Layer 1"
     inkscape:groupmode="layer"
     id="layer1"><path
       d="m 107.28625,97.796236 -2.28745,27.692694 1.66427,1.43765 -0.98177,6.1552 -3.92173,0.5692 -3.367188,2.81265 h 5.865258 l -0.20595,3.01861 -8.447306,1.46232 -3.332535,2.88131 h 12.628971 l 7.11696,6.26782 7.13696,-6.26782 h 12.62364 l -3.33253,-2.88131 -8.44731,-1.46232 -0.20595,-3.01861 h 5.87059 l -3.36719,-2.81265 -3.92706,-0.66718 -0.9811,-6.05722 1.66827,-1.43765 -2.28679,-27.692694 -1.14373,6.247834 -0.62318,15.74089 -2.99395,2.24813 -2.95529,-2.24813 -0.62318,-15.74089 z"
       style="fill:#f07b05;stroke-width:1.28977"
       id="path15" /><path
       d="m 122.31198,212.11083 -10.05825,-24.12022 -11.07801,26.41167 7.6175,7.3969 c -1.01112,6.35619 -1.96322,12.71731 -2.01218,14.05729 -0.005,0.19151 0.0155,0.3916 0.058,0.59853 h 10.68277 c 0.0421,-0.20701 0.0624,-0.40712 0.0573,-0.59853 -0.0343,-1.30068 -0.94717,-7.36242 -1.92887,-13.53208 l 4.73887,-4.92816 c 0.50957,-1.81935 1.15425,-3.58509 1.92287,-5.2854 z"
       style="display:inline;fill:#f07b05;stroke-width:1.28977"
       id="path11" /><path
       d="m 77.542047,112.01616 v 22.15403 a 14.209522,14.209522 0 0 1 -14.207262,14.21059 h -9.998269 c 2.321461,2.17036 4.778818,4.45391 7.222935,6.71438 H 32.586823 l 12.836923,11.46525 h 17.911039 a 14.209522,14.209522 0 0 1 14.207262,14.20794 v 2.30411 h 20.659048 l -3.0626,5.39937 H 77.542047 v 6.83969 l 0.60852,0.52255 h 22.288653 l 11.61322,-22.82854 11.85849,22.82854 h 12.44036 c 4.79312,-3.09541 10.31943,-5.13199 16.23344,-5.76463 l 1.86089,-1.59761 h -25.24329 l -3.06326,-5.39937 h 34.39709 l 28.38186,-25.61786 c 3.1e-4,-0.79199 0.0261,-1.57888 0.076,-2.35944 h -25.43923 c 8.83498,-8.17715 17.80262,-16.61932 19.9672,-18.95079 5.79673,-6.25804 5.78195,-6.38044 5.78195,-19.03876 v -3.28856 c 0,0 7.78958,-7.28879 8.00542,-7.48019 6.87169,-5.98804 6.87169,-5.98865 6.87169,-23.560357 v -0.137301 c 0.51994,-0.387453 2.60435,-2.32555 4.54891,-4.15567 h -25.06602 l -51.19306,46.298228 h -0.0493 v 3.55849 c 0,0 6.66574,5.24699 6.66574,11.54923 l -7.29892,7.36223 h -7.48954 l -5.61065,5.47803 v 0.0393 l -0.38258,1.86489 h -12.49634 l -0.38324,-1.86023 v -0.0393 l -5.609989,-5.46269 h -7.494869 l -7.298917,-7.36224 c 0,-6.28258 6.670401,-11.5199 6.670401,-11.5199 v -3.62713 h -0.04865 z"
       style="display:inline;fill:#f07b05;stroke-width:1.28977"
       id="path7" /><path
       fill="currentColor"
       d="m 249.7231,180.76834 v 46.59683 a 23.298463,23.298463 0 0 1 -23.29855,23.29855 h -46.59683 v -23.29855 a 23.298463,23.298463 0 0 0 -23.29856,-23.29855 23.298463,23.298463 0 0 0 -23.29857,23.29855 v 23.29855 H 86.633759 A 23.298463,23.298463 0 0 1 63.335207,227.36517 V 180.76834 H 40.036926 A 23.298463,23.298463 0 0 1 16.738373,157.46978 23.298463,23.298463 0 0 1 40.036926,134.17122 H 63.335207 V 87.574391 c 0,-12.814248 10.484305,-23.298553 23.298552,-23.298553 H 133.23059 V 40.977557 a 23.298463,23.298463 0 0 1 23.29857,-23.298552 23.298463,23.298463 0 0 1 23.29856,23.298552 v 23.298281 h 46.59683 a 23.298463,23.298463 0 0 1 23.29855,23.298553 v 46.596829 h -23.29855 a 23.298463,23.298463 0 0 0 -23.29855,23.29856 23.298463,23.298463 0 0 0 23.29855,23.29856 z"
       id="path1-5"
       style="display:inline;fill:none;fill-opacity:1;stroke:#f07b05;stroke-width:15.6475;stroke-linejoin:round;stroke-dasharray:none;stroke-opacity:1" /></g></svg>
